<svg xmlns="http://www.w3.org/2000/svg" width="47.306" height="47.315" viewBox="0 0 47.306 47.315"><defs><style>.a{fill:#fff;}</style></defs><path class="a" d="M47.634,13.911a17.289,17.289,0,0,0-1.1-5.74,12.12,12.12,0,0,0-6.923-6.923,17.333,17.333,0,0,0-5.74-1.1C31.339.028,30.534,0,24.111,0s-7.228.028-9.751.139a17.294,17.294,0,0,0-5.74,1.1,11.544,11.544,0,0,0-4.2,2.736A11.649,11.649,0,0,0,1.7,8.162,17.335,17.335,0,0,0,.6,13.9c-.12,2.533-.148,3.337-.148,9.761s.028,7.228.139,9.751a17.288,17.288,0,0,0,1.1,5.74A12.118,12.118,0,0,0,8.61,46.076a17.336,17.336,0,0,0,5.74,1.1c2.523.111,3.327.139,9.751.139s7.228-.027,9.751-.139a17.285,17.285,0,0,0,5.74-1.1,12.1,12.1,0,0,0,6.923-6.923,17.347,17.347,0,0,0,1.1-5.74c.111-2.523.139-3.327.139-9.751s-.009-7.228-.12-9.751ZM43.373,33.229a12.969,12.969,0,0,1-.813,4.39,7.849,7.849,0,0,1-4.492,4.492,13.014,13.014,0,0,1-4.39.813c-2.5.111-3.244.139-9.557.139s-7.071-.027-9.557-.139a12.962,12.962,0,0,1-4.39-.813,7.281,7.281,0,0,1-2.717-1.766,7.356,7.356,0,0,1-1.766-2.717,13.017,13.017,0,0,1-.813-4.39c-.111-2.5-.139-3.244-.139-9.557s.027-7.071.139-9.557a12.962,12.962,0,0,1,.813-4.39A7.192,7.192,0,0,1,7.464,7.015,7.345,7.345,0,0,1,10.182,5.25a13.023,13.023,0,0,1,4.39-.813c2.5-.111,3.244-.139,9.557-.139s7.071.028,9.557.139a12.969,12.969,0,0,1,4.39.813,7.275,7.275,0,0,1,2.717,1.765A7.354,7.354,0,0,1,42.56,9.733a13.021,13.021,0,0,1,.813,4.39c.111,2.5.139,3.244.139,9.557s-.028,7.052-.139,9.548Zm0,0" transform="translate(-0.449 0)"/><path class="a" d="M137.1,124.5a12.155,12.155,0,1,0,12.155,12.155A12.158,12.158,0,0,0,137.1,124.5Zm0,20.039a7.884,7.884,0,1,1,7.884-7.884A7.886,7.886,0,0,1,137.1,144.539Zm0,0" transform="translate(-113.441 -112.992)"/><path class="a" d="M368.125,91.439a2.838,2.838,0,1,1-2.838-2.838A2.838,2.838,0,0,1,368.125,91.439Zm0,0" transform="translate(-328.99 -80.412)"/></svg>