<svg xmlns="http://www.w3.org/2000/svg" width="41.667" height="47.425" viewBox="0 0 41.667 47.425"><defs><style>.a{fill:#fff;}</style></defs><g transform="translate(-31.423 -0.39)"><path class="a" d="M73.067,12.265a11.949,11.949,0,0,1-7.22-2.413A11.977,11.977,0,0,1,61.3,2.631,12.04,12.04,0,0,1,61.074.39H53.33V21.549l-.009,11.59a7.02,7.02,0,1,1-4.815-6.651V18.626a15.238,15.238,0,0,0-2.233-.165,14.848,14.848,0,0,0-11.157,4.99,14.551,14.551,0,0,0,.657,20.065,15.106,15.106,0,0,0,1.4,1.222,14.85,14.85,0,0,0,9.1,3.077,15.237,15.237,0,0,0,2.233-.164,14.8,14.8,0,0,0,8.268-4.135A14.5,14.5,0,0,0,61.123,33.2l-.04-17.307a19.562,19.562,0,0,0,4.349,2.536,19.574,19.574,0,0,0,7.657,1.544V12.263s-.02,0-.022,0Z" transform="translate(0)"/></g></svg>