<svg xmlns="http://www.w3.org/2000/svg" width="48.531" height="39.432" viewBox="0 0 48.531 39.432"><defs><style>.a{fill:#fff;}</style></defs><path class="a" d="M48.531,52.668A20.744,20.744,0,0,1,42.8,54.239a9.894,9.894,0,0,0,4.377-5.5,19.883,19.883,0,0,1-6.309,2.408,9.949,9.949,0,0,0-17.21,6.8,10.244,10.244,0,0,0,.231,2.269A28.162,28.162,0,0,1,3.379,49.814a9.952,9.952,0,0,0,3.057,13.3,9.826,9.826,0,0,1-4.5-1.225V62a10,10,0,0,0,7.971,9.776A9.93,9.93,0,0,1,7.3,72.1a8.8,8.8,0,0,1-1.884-.17,10.044,10.044,0,0,0,9.3,6.931A19.991,19.991,0,0,1,2.381,83.1,18.635,18.635,0,0,1,0,82.967a28.01,28.01,0,0,0,15.263,4.465c18.308,0,28.318-15.166,28.318-28.312,0-.44-.015-.864-.036-1.286A19.849,19.849,0,0,0,48.531,52.668Z" transform="translate(0 -48)"/></svg>