<svg xmlns="http://www.w3.org/2000/svg" width="57.133" height="40.502" viewBox="0 0 57.133 40.502"><defs><style>.a{fill:#fff;}</style></defs><path class="a" d="M55.957.256a7.2,7.2,0,0,0-5.035-5.1C46.45-6.082,28.567-6.082,28.567-6.082s-17.883,0-22.354,1.192A7.35,7.35,0,0,0,1.177.256C0,4.782,0,14.169,0,14.169S0,23.6,1.177,28.083a7.2,7.2,0,0,0,5.036,5.1c4.518,1.239,22.354,1.239,22.354,1.239s17.883,0,22.354-1.192a7.2,7.2,0,0,0,5.036-5.1c1.176-4.527,1.176-13.914,1.176-13.914S57.181,4.782,55.957.256ZM22.873,22.841V5.5l14.871,8.672Zm0,0" transform="translate(-0.001 6.082)"/></svg>